<svg xmlns="http://www.w3.org/2000/svg" xmlns:svg="http://www.w3.org/2000/svg" id="svg3063" width="233.327" height="365.588" version="1.1"><defs id="defs3065"><marker id="Arrow1Mend" orient="auto" refX="0" refY="0" style="overflow:visible"><path id="path4039" d="M 0,0 5,-5 -12.5,0 5,5 0,0 z" style="fill-rule:evenodd;stroke:#000;stroke-width:1pt" transform="matrix(-0.4,0,0,-0.4,-4,0)"/></marker><marker id="Arrow1Mend-0" orient="auto" refX="0" refY="0" style="overflow:visible"><path id="path4039-9" d="M 0,0 5,-5 -12.5,0 5,5 0,0 z" style="fill-rule:evenodd;stroke:#000;stroke-width:1pt" transform="matrix(-0.4,0,0,-0.4,-4,0)"/></marker><marker id="Arrow1Mend-3" orient="auto" refX="0" refY="0" style="overflow:visible"><path id="path4039-8" d="M 0,0 5,-5 -12.5,0 5,5 0,0 z" style="fill-rule:evenodd;stroke:#000;stroke-width:1pt" transform="matrix(-0.4,0,0,-0.4,-4,0)"/></marker><marker id="Arrow1Mend-8" orient="auto" refX="0" refY="0" style="overflow:visible"><path id="path4039-5" d="M 0,0 5,-5 -12.5,0 5,5 0,0 z" style="fill-rule:evenodd;stroke:#000;stroke-width:1pt" transform="matrix(-0.4,0,0,-0.4,-4,0)"/></marker><marker id="Arrow1Mend-8-4" orient="auto" refX="0" refY="0" style="overflow:visible"><path id="path4039-5-9" d="M 0,0 5,-5 -12.5,0 5,5 0,0 z" style="fill-rule:evenodd;stroke:#000;stroke-width:1pt" transform="matrix(-0.4,0,0,-0.4,-4,0)"/></marker><marker id="Arrow1Mend-8-9" orient="auto" refX="0" refY="0" style="overflow:visible"><path id="path4039-5-2" d="M 0,0 5,-5 -12.5,0 5,5 0,0 z" style="fill-rule:evenodd;stroke:#000;stroke-width:1pt" transform="matrix(-0.4,0,0,-0.4,-4,0)"/></marker></defs><metadata id="metadata3068"/><g id="layer1" transform="translate(-69,-438.05018)"><rect style="opacity:.6;fill:#00f;fill-opacity:.50196078;stroke:#000;stroke-width:2;stroke-linecap:round;stroke-miterlimit:4;stroke-opacity:1;stroke-dasharray:none;stroke-dashoffset:0" id="rect3103" width="80" height="80" x="70" y="482.362"/><rect style="opacity:.6;fill:#00f;fill-opacity:.50196078;stroke:#000;stroke-width:2;stroke-linecap:round;stroke-miterlimit:4;stroke-opacity:1;stroke-dasharray:none;stroke-dashoffset:0" id="rect3109" width="80" height="40" x="70" y="582.362"/><rect style="opacity:.6;fill:#00f;fill-opacity:.50196078;stroke:#000;stroke-width:2;stroke-linecap:round;stroke-miterlimit:4;stroke-opacity:1;stroke-dasharray:none;stroke-dashoffset:0" id="rect3111" width="80" height="80" x="70" y="642.362"/><rect style="opacity:.6;fill:#00f;fill-opacity:.50196078;stroke:#000;stroke-width:2;stroke-linecap:round;stroke-miterlimit:4;stroke-opacity:1;stroke-dasharray:none;stroke-dashoffset:0" id="rect3113" width="80" height="60" x="70" y="742.362"/><path style="fill:none;stroke:#000;stroke-width:2.5;stroke-linecap:butt;stroke-linejoin:miter;stroke-miterlimit:4;stroke-opacity:1;stroke-dasharray:none" id="path3115" d="m 130,482.36218 c 0,80 0,80 0,80"/><path style="fill:none;stroke:#000;stroke-width:2.5;stroke-linecap:butt;stroke-linejoin:miter;stroke-miterlimit:4;stroke-opacity:1;stroke-dasharray:none" id="path3885" d="m 130,582.36218 c 0,40 0,40 0,40"/><path style="fill:none;stroke:#000;stroke-width:2.5;stroke-linecap:butt;stroke-linejoin:miter;stroke-miterlimit:4;stroke-opacity:1;stroke-dasharray:none" id="path3887" d="m 130,642.36218 c 0,80 0,80 0,80"/><path style="fill:none;stroke:#000;stroke-width:2.5;stroke-linecap:butt;stroke-linejoin:miter;stroke-miterlimit:4;stroke-opacity:1;stroke-dasharray:none" id="path3889" d="m 130,742.36218 c 0,60 0,60 0,60"/><path style="fill:none;stroke:#000;stroke-width:2.5;stroke-linecap:butt;stroke-linejoin:miter;stroke-miterlimit:4;stroke-opacity:1;stroke-dasharray:none" id="path3891" d="m 198.5863,482.36218 c 0,80 0,80 0,80"/><path style="fill:none;stroke:#000;stroke-width:2.5;stroke-linecap:butt;stroke-linejoin:miter;stroke-miterlimit:4;stroke-opacity:1;stroke-dasharray:none" id="path3893" d="m 198.5863,582.36218 c 0,40 0,40 0,40"/><path style="fill:none;stroke:#000;stroke-width:2.5;stroke-linecap:butt;stroke-linejoin:miter;stroke-miterlimit:4;stroke-opacity:1;stroke-dasharray:none" id="path3895" d="m 198.5863,642.36218 c 0,80 0,80 0,80"/><path style="fill:none;stroke:#000;stroke-width:2.5;stroke-linecap:butt;stroke-linejoin:miter;stroke-miterlimit:4;stroke-opacity:1;stroke-dasharray:none" id="path3897" d="m 198.5863,742.36218 c 0,60 0,60 0,60"/><path style="fill:none;stroke:#000;stroke-width:2.5;stroke-linecap:butt;stroke-linejoin:miter;stroke-miterlimit:4;stroke-opacity:1;stroke-dasharray:none" id="path3899" d="m 218.5863,482.36218 c 0,20 0,20 0,20"/><path style="fill:none;stroke:#000;stroke-width:2.5;stroke-linecap:butt;stroke-linejoin:miter;stroke-miterlimit:4;stroke-opacity:1;stroke-dasharray:none" id="path3901" d="m 218.5863,512.36218 c 0,20 0,20 0,20"/><path style="fill:none;stroke:#000;stroke-width:2.5;stroke-linecap:butt;stroke-linejoin:miter;stroke-miterlimit:4;stroke-opacity:1;stroke-dasharray:none" id="path3903" d="m 218.5863,542.36218 c 0,20 0,20 0,20"/><path style="fill:none;stroke:#000;stroke-width:2.5;stroke-linecap:butt;stroke-linejoin:miter;stroke-miterlimit:4;stroke-opacity:1;stroke-dasharray:none" id="path3905" d="m 218.5863,582.36218 c 0,20 0,20 0,20"/><path style="fill:none;stroke:#000;stroke-width:2.5;stroke-linecap:butt;stroke-linejoin:miter;stroke-miterlimit:4;stroke-opacity:1;stroke-dasharray:none" id="path3907" d="m 218.5863,612.36218 c 0,10 0,10 0,10"/><path style="fill:none;stroke:#000;stroke-width:2.5;stroke-linecap:butt;stroke-linejoin:miter;stroke-miterlimit:4;stroke-opacity:1;stroke-dasharray:none" id="path3909" d="m 218.5863,642.36218 c 0,20 0,20 0,20"/><path style="fill:none;stroke:#000;stroke-width:2.5;stroke-linecap:butt;stroke-linejoin:miter;stroke-miterlimit:4;stroke-opacity:1;stroke-dasharray:none" id="path3911" d="m 218.5863,672.36218 c 0,20 0,20 0,20"/><path style="fill:none;stroke:#000;stroke-width:2.5;stroke-linecap:butt;stroke-linejoin:miter;stroke-miterlimit:4;stroke-opacity:1;stroke-dasharray:none" id="path3913" d="m 218.5863,702.36218 c 0,20 0,20 0,20"/><path style="fill:none;stroke:#000;stroke-width:2.5;stroke-linecap:butt;stroke-linejoin:miter;stroke-miterlimit:4;stroke-opacity:1;stroke-dasharray:none" id="path3915" d="m 218.5863,742.36218 c 0,20 0,20 0,20"/><path style="fill:none;stroke:#000;stroke-width:2.5;stroke-linecap:butt;stroke-linejoin:miter;stroke-miterlimit:4;stroke-opacity:1;stroke-dasharray:none" id="path3917" d="m 218.5863,772.36218 c 0,20 0,20 0,20"/><path style="fill:none;stroke:#000;stroke-width:2.5;stroke-linecap:butt;stroke-linejoin:miter;stroke-miterlimit:4;stroke-opacity:1;stroke-dasharray:none" id="path3919" d="m 295.66244,482.36218 c 0,320 0,320 0,320"/><path style="fill:none;stroke:#000;stroke-width:2.5;stroke-linecap:butt;stroke-linejoin:miter;stroke-miterlimit:4;stroke-opacity:1;stroke-dasharray:none" id="path3921" d="m 218.5863,792.36218 c 0,10 0,10 0,10"/><path style="fill:none;stroke:#000;stroke-width:2.5;stroke-linecap:butt;stroke-linejoin:miter;stroke-miterlimit:4;stroke-opacity:1;stroke-dasharray:none" id="path3899-9" d="m 222.35017,482.38793 c 0,20 0,20 0,20"/><path style="fill:none;stroke:#000;stroke-width:2.5;stroke-linecap:butt;stroke-linejoin:miter;stroke-miterlimit:4;stroke-opacity:1;stroke-dasharray:none" id="path3901-6" d="m 222.35017,512.38793 c 0,20 0,20 0,20"/><path style="fill:none;stroke:#000;stroke-width:2.5;stroke-linecap:butt;stroke-linejoin:miter;stroke-miterlimit:4;stroke-opacity:1;stroke-dasharray:none" id="path3903-7" d="m 222.35017,542.38793 c 0,20 0,20 0,20"/><path style="fill:none;stroke:#000;stroke-width:2.5;stroke-linecap:butt;stroke-linejoin:miter;stroke-miterlimit:4;stroke-opacity:1;stroke-dasharray:none" id="path3905-6" d="m 222.35017,582.38793 c 0,20 0,20 0,20"/><path style="fill:none;stroke:#000;stroke-width:2.5;stroke-linecap:butt;stroke-linejoin:miter;stroke-miterlimit:4;stroke-opacity:1;stroke-dasharray:none" id="path3907-7" d="m 222.35017,612.38793 c 0,10 0,10 0,10"/><path style="fill:none;stroke:#000;stroke-width:2.5;stroke-linecap:butt;stroke-linejoin:miter;stroke-miterlimit:4;stroke-opacity:1;stroke-dasharray:none" id="path3909-4" d="m 222.35017,642.38793 c 0,20 0,20 0,20"/><path style="fill:none;stroke:#000;stroke-width:2.5;stroke-linecap:butt;stroke-linejoin:miter;stroke-miterlimit:4;stroke-opacity:1;stroke-dasharray:none" id="path3911-5" d="m 222.35017,672.38793 c 0,20 0,20 0,20"/><path style="fill:none;stroke:#000;stroke-width:2.5;stroke-linecap:butt;stroke-linejoin:miter;stroke-miterlimit:4;stroke-opacity:1;stroke-dasharray:none" id="path3913-6" d="m 222.35017,702.38793 c 0,20 0,20 0,20"/><path style="fill:none;stroke:#000;stroke-width:2.5;stroke-linecap:butt;stroke-linejoin:miter;stroke-miterlimit:4;stroke-opacity:1;stroke-dasharray:none" id="path3915-2" d="m 222.35017,742.38793 c 0,20 0,20 0,20"/><path style="fill:none;stroke:#000;stroke-width:2.5;stroke-linecap:butt;stroke-linejoin:miter;stroke-miterlimit:4;stroke-opacity:1;stroke-dasharray:none" id="path3917-3" d="m 222.35017,772.38793 c 0,20 0,20 0,20"/><path style="fill:none;stroke:#000;stroke-width:2.5;stroke-linecap:butt;stroke-linejoin:miter;stroke-miterlimit:4;stroke-opacity:1;stroke-dasharray:none" id="path3921-0" d="m 222.35017,792.38793 c 0,10 0,10 0,10"/><path style="fill:none;stroke:#000;stroke-width:2.5;stroke-linecap:butt;stroke-linejoin:miter;stroke-miterlimit:4;stroke-opacity:1;stroke-dasharray:none" id="path3891-7" d="m 202.39912,482.37583 c 0,80 0,80 0,80"/><path style="fill:none;stroke:#000;stroke-width:2.5;stroke-linecap:butt;stroke-linejoin:miter;stroke-miterlimit:4;stroke-opacity:1;stroke-dasharray:none" id="path3893-0" d="m 202.39912,582.37583 c 0,40 0,40 0,40"/><path style="fill:none;stroke:#000;stroke-width:2.5;stroke-linecap:butt;stroke-linejoin:miter;stroke-miterlimit:4;stroke-opacity:1;stroke-dasharray:none" id="path3895-4" d="m 202.39912,642.37583 c 0,80 0,80 0,80"/><path style="fill:none;stroke:#000;stroke-width:2.5;stroke-linecap:butt;stroke-linejoin:miter;stroke-miterlimit:4;stroke-opacity:1;stroke-dasharray:none" id="path3897-0" d="m 202.39912,742.37583 c 0,60 0,60 0,60"/><path style="fill:none;stroke:#000;stroke-width:2.5;stroke-linecap:butt;stroke-linejoin:miter;stroke-miterlimit:4;stroke-opacity:1;stroke-dasharray:none" id="path3919-4" d="m 299.59101,482.36218 c 0,320 0,320 0,320"/><text xml:space="preserve" style="font-size:20px;font-style:normal;font-variant:normal;font-weight:400;font-stretch:normal;line-height:125%;letter-spacing:0;word-spacing:0;fill:#000;fill-opacity:1;stroke:none;font-family:ubuntu;-inkscape-font-specification:ubuntu" id="text4020" x="160" y="522.362"><tspan id="tspan4022" x="160" y="522.362" style="font-size:15px">sort</tspan></text><path style="fill:none;stroke:#000;stroke-width:1px;stroke-linecap:butt;stroke-linejoin:miter;stroke-opacity:1;marker-end:url(#Arrow1Mend)" id="path4024" d="m 160,527.36218 c 30,0 30,0 30,0"/><text xml:space="preserve" style="font-size:20px;font-style:normal;font-variant:normal;font-weight:400;font-stretch:normal;line-height:125%;letter-spacing:0;word-spacing:0;fill:#000;fill-opacity:1;stroke:none;font-family:ubuntu;-inkscape-font-specification:ubuntu" id="text4020-3" x="160" y="602.362"><tspan id="tspan4022-1" x="160" y="602.362" style="font-size:15px">sort</tspan></text><path style="fill:none;stroke:#000;stroke-width:1px;stroke-linecap:butt;stroke-linejoin:miter;stroke-opacity:1;marker-end:url(#Arrow1Mend)" id="path4024-7" d="m 160,607.36218 c 30,0 30,0 30,0"/><text xml:space="preserve" style="font-size:20px;font-style:normal;font-variant:normal;font-weight:400;font-stretch:normal;line-height:125%;letter-spacing:0;word-spacing:0;fill:#000;fill-opacity:1;stroke:none;font-family:ubuntu;-inkscape-font-specification:ubuntu" id="text4020-33" x="160" y="682.362"><tspan id="tspan4022-6" x="160" y="682.362" style="font-size:15px">sort</tspan></text><path style="fill:none;stroke:#000;stroke-width:1px;stroke-linecap:butt;stroke-linejoin:miter;stroke-opacity:1;marker-end:url(#Arrow1Mend)" id="path4024-71" d="m 160,687.36218 c 30,0 30,0 30,0"/><text xml:space="preserve" style="font-size:20px;font-style:normal;font-variant:normal;font-weight:400;font-stretch:normal;line-height:125%;letter-spacing:0;word-spacing:0;fill:#000;fill-opacity:1;stroke:none;font-family:ubuntu;-inkscape-font-specification:ubuntu" id="text4020-7" x="160" y="772.362"><tspan id="tspan4022-7" x="160" y="772.362" style="font-size:15px">sort</tspan></text><path style="fill:none;stroke:#000;stroke-width:1px;stroke-linecap:butt;stroke-linejoin:miter;stroke-opacity:1;marker-end:url(#Arrow1Mend)" id="path4024-1" d="m 160.5,778.36218 c 30,0 30,0 30,0"/><text xml:space="preserve" style="font-size:20px;font-style:normal;font-variant:normal;font-weight:400;font-stretch:normal;line-height:125%;letter-spacing:0;word-spacing:0;fill:#000;fill-opacity:1;stroke:none;font-family:ubuntu;-inkscape-font-specification:ubuntu" id="text4020-6" x="240" y="632.362"><tspan id="tspan4022-3" x="240" y="632.362" style="font-size:15px">merge</tspan></text><path style="fill:none;stroke:#000;stroke-width:1px;stroke-linecap:butt;stroke-linejoin:miter;stroke-opacity:1;marker-end:url(#Arrow1Mend-8)" id="path4553" d="m 240,637.36218 c 45,0 45,0 45,0"/><text xml:space="preserve" style="font-size:20px;font-style:normal;font-variant:normal;font-weight:400;font-stretch:normal;line-height:125%;letter-spacing:0;word-spacing:0;fill:#000;fill-opacity:1;stroke:none;font-family:ubuntu;-inkscape-font-specification:ubuntu" id="text3049" x="85" y="447.362"><tspan id="tspan3051" x="85" y="447.362" style="font-size:12px">new index</tspan></text><path style="fill:none;stroke:#000;stroke-width:1px;stroke-linecap:butt;stroke-linejoin:miter;stroke-opacity:1;marker-end:url(#Arrow1Mend-8)" id="path3053" d="m 61,-28.749993 c 0,24.9999998 0,24.9999998 0,24.9999998" transform="translate(69,481.11218)"/><text xml:space="preserve" style="font-size:20px;font-style:normal;font-variant:normal;font-weight:400;font-stretch:normal;line-height:125%;letter-spacing:0;word-spacing:0;fill:#000;fill-opacity:1;stroke:none;font-family:ubuntu;-inkscape-font-specification:ubuntu" id="text3049-0" x="155" y="447.362"><tspan id="tspan3051-1" x="155" y="447.362" style="font-size:12px">index+location</tspan></text><path style="fill:none;stroke:#000;stroke-width:1px;stroke-linecap:butt;stroke-linejoin:miter;stroke-opacity:1;marker-end:url(#Arrow1Mend-8)" id="path3053-7" d="m 200.3033,452.31194 c 0,25 0,25 0,25"/><text xml:space="preserve" style="font-size:20px;font-style:normal;font-variant:normal;font-weight:400;font-stretch:normal;line-height:125%;letter-spacing:0;word-spacing:0;fill:#000;fill-opacity:1;stroke:none;font-family:ubuntu;-inkscape-font-specification:ubuntu" id="text4080" x="250" y="447.362"><tspan id="tspan4082" x="250" y="447.362" style="font-size:12px">full result</tspan></text><path style="fill:none;stroke:#000;stroke-width:1px;stroke-linecap:butt;stroke-linejoin:miter;stroke-opacity:1;marker-end:url(#Arrow1Mend-8)" id="path3053-7-5" d="m 295.65685,452.26169 c 0,25 0,25 0,25"/></g></svg>