<svg xmlns="http://www.w3.org/2000/svg" xmlns:xlink="http://www.w3.org/1999/xlink" width="416" height="110pt" viewBox="0 0 311.57 109.82"><g id="graph0" class="graph" transform="scale(1 1) rotate(0) translate(4 105.821)"><title>%3</title><polygon fill="#fff" stroke="none" points="-4 4 -4 -105.821 307.572 -105.821 307.572 4 -4 4"/><g id="node1" class="node"><title>-893722439790061373</title><polygon fill="none" stroke="#000" points="303.572 -68.911 249.572 -68.911 249.572 -32.911 303.572 -32.911 303.572 -68.911"/></g><g id="node2" class="node"><title>5770880075037384097</title><ellipse cx="190.697" cy="-50.911" fill="none" stroke="#000" rx="22.752" ry="22.752"/><text x="190.697" y="-46.711" font-family="Times,serif" font-size="14" text-anchor="middle">add</text></g><g id="edge1" class="edge"><title>5770880075037384097-&gt;-893722439790061373</title><path fill="none" stroke="#000" d="M213.734,-50.9107C221.618,-50.9107 230.724,-50.9107 239.483,-50.9107"/><polygon fill="#000" stroke="#000" points="239.511 -54.411 249.511 -50.911 239.511 -47.411 239.511 -54.411"/></g><g id="node3" class="node"><title>-456586881178185614</title><polygon fill="none" stroke="#000" points="131.821 -96.911 77.821 -96.911 77.821 -60.911 131.821 -60.911 131.821 -96.911"/></g><g id="edge2" class="edge"><title>-456586881178185614-&gt;5770880075037384097</title><path fill="none" stroke="#000" d="M131.9,-70.2048C140.496,-67.3355 150.133,-64.1182 159.038,-61.1456"/><polygon fill="#000" stroke="#000" points="160.308 -64.411 168.685 -57.925 158.092 -57.772 160.308 -64.411"/></g><g id="node4" class="node"><title>7307795281669170797</title><polygon fill="none" stroke="#000" points="131.821 -41.911 77.821 -41.911 77.821 -5.911 131.821 -5.911 131.821 -41.911"/></g><g id="edge3" class="edge"><title>7307795281669170797-&gt;5770880075037384097</title><path fill="none" stroke="#000" d="M131.9,-32.3057C140.496,-35.0725 150.133,-38.1749 159.038,-41.0414"/><polygon fill="#000" stroke="#000" points="158.094 -44.414 168.685 -44.147 160.239 -37.751 158.094 -44.414"/></g><g id="node5" class="node"><title>5457620921521845768</title><ellipse cx="20.911" cy="-80.911" fill="none" stroke="#000" rx="20.822" ry="20.822"/><text x="20.911" y="-76.711" font-family="Times,serif" font-size="14" text-anchor="middle">inc</text></g><g id="edge4" class="edge"><title>5457620921521845768-&gt;-456586881178185614</title><path fill="none" stroke="#000" d="M42.1583,-80.4163C49.8538,-80.2284 58.873,-80.0082 67.6014,-79.7951"/><polygon fill="#000" stroke="#000" points="67.706 -83.294 77.618 -79.55 67.535 -76.296 67.706 -83.294"/></g><g id="node6" class="node"><title>-1622293681637850997</title><ellipse cx="20.911" cy="-20.911" fill="none" stroke="#000" rx="20.822" ry="20.822"/><text x="20.911" y="-16.711" font-family="Times,serif" font-size="14" text-anchor="middle">inc</text></g><g id="edge5" class="edge"><title>-1622293681637850997-&gt;7307795281669170797</title><path fill="none" stroke="#000" d="M42.1583,-21.6523C49.8538,-21.9341 58.873,-22.2645 67.6014,-22.5841"/><polygon fill="#000" stroke="#000" points="67.496 -26.082 77.618 -22.951 67.752 -19.087 67.496 -26.082"/></g></g></svg>