<svg xmlns="http://www.w3.org/2000/svg" xmlns:xlink="http://www.w3.org/1999/xlink" width="164pt" height="149pt" viewBox="0 0 163.89 148.89"><g id="graph0" class="graph" transform="scale(1 1) rotate(0) translate(4 144.8939)"><title>%3</title><polygon fill="#fff" stroke="transparent" points="-4 4 -4 -144.894 159.894 -144.894 159.894 4 -4 4"/><g id="node1" class="node"><title>1242807449933300231</title><ellipse cx="34.447" cy="-34.447" fill="none" stroke="#000" rx="34.394" ry="34.394"/><text x="34.447" y="-30.747" fill="#000" font-family="Times,serif" font-size="14" text-anchor="middle">count1</text></g><g id="node2" class="node"><title>9194842205208052348</title><polygon fill="none" stroke="#000" points="61.447 -140.894 7.447 -140.894 7.447 -104.894 61.447 -104.894 61.447 -140.894"/><text x="34.447" y="-119.194" fill="#000" font-family="Times,serif" font-size="14" text-anchor="middle">print1</text></g><g id="edge1" class="edge"><title>1242807449933300231-&gt;9194842205208052348</title><path fill="none" stroke="#000" d="M34.4469,-68.8961C34.4469,-77.395 34.4469,-86.401 34.4469,-94.5715"/><polygon fill="#000" stroke="#000" points="30.947 -94.718 34.447 -104.718 37.947 -94.718 30.947 -94.718"/></g><g id="node3" class="node"><title>6590722590589999451</title><ellipse cx="121.447" cy="-34.447" fill="none" stroke="#000" rx="34.394" ry="34.394"/><text x="121.447" y="-30.747" fill="#000" font-family="Times,serif" font-size="14" text-anchor="middle">count2</text></g><g id="node4" class="node"><title>5022637276554243765</title><polygon fill="none" stroke="#000" points="148.447 -140.894 94.447 -140.894 94.447 -104.894 148.447 -104.894 148.447 -140.894"/><text x="121.447" y="-119.194" fill="#000" font-family="Times,serif" font-size="14" text-anchor="middle">print2</text></g><g id="edge2" class="edge"><title>6590722590589999451-&gt;5022637276554243765</title><path fill="none" stroke="#000" d="M121.4469,-68.8961C121.4469,-77.395 121.4469,-86.401 121.4469,-94.5715"/><polygon fill="#000" stroke="#000" points="117.947 -94.718 121.447 -104.718 124.947 -94.718 117.947 -94.718"/></g></g></svg>