<svg xmlns="http://www.w3.org/2000/svg" xmlns:xlink="http://www.w3.org/1999/xlink" width="556" height="488" viewBox="0 0 416.9 366.48"><g id="graph0" class="graph" transform="scale(1 1) rotate(0) translate(4 362.481)"><title>%3</title><polygon fill="#fff" stroke="transparent" points="-4 4 -4 -362.481 412.903 -362.481 412.903 4 -4 4"/><g id="node1" class="node"><title>5022637276554243765</title><ellipse cx="48.903" cy="-326.634" fill="none" stroke="#000" rx="31.695" ry="31.695"/><text x="48.903" y="-322.934" fill="#000" font-family="Times,serif" font-size="14" text-anchor="middle">print2</text></g><g id="node2" class="node"><title>90492689105354559</title><ellipse cx="48.903" cy="-219.79" fill="none" stroke="#000" rx="38.993" ry="38.993"/><text x="48.903" y="-216.09" fill="#000" font-family="Times,serif" font-size="14" text-anchor="middle">format2</text></g><g id="edge1" class="edge"><title>90492689105354559-&gt;5022637276554243765</title><path fill="none" stroke="#000" d="M48.9031,-258.968C48.9031,-267.1757 48.9031,-275.8674 48.9031,-284.1877"/><polygon fill="#000" stroke="#000" points="45.403 -284.464 48.903 -294.464 52.403 -284.464 45.403 -284.464"/></g><g id="node3" class="node"><title>7605293337862961951</title><ellipse cx="261.903" cy="-108.397" fill="none" stroke="#000" rx="36.294" ry="36.294"/><text x="261.903" y="-104.697" fill="#000" font-family="Times,serif" font-size="14" text-anchor="middle">nwords</text></g><g id="edge14" class="edge"><title>7605293337862961951-&gt;90492689105354559</title><path fill="none" stroke="#000" d="M234.1201,-132.4786C228.3161,-136.8979 222.0785,-141.2327 215.9031,-144.7935 178.2238,-166.5197 164.5209,-162.8442 124.9031,-180.7935 114.2463,-185.6217 102.9402,-191.1775 92.397,-196.5539"/><polygon fill="#000" stroke="#000" points="90.649 -193.517 83.364 -201.21 93.856 -199.739 90.649 -193.517"/></g><g id="node11" class="node"><title>-2194791630953700651</title><ellipse cx="172.903" cy="-219.79" fill="none" stroke="#000" rx="38.993" ry="38.993"/><text x="172.903" y="-216.09" fill="#000" font-family="Times,serif" font-size="14" text-anchor="middle">format1</text></g><g id="edge11" class="edge"><title>7605293337862961951-&gt;-2194791630953700651</title><path fill="none" stroke="#000" d="M238.9833,-137.0833C228.2061,-150.5722 215.2007,-166.8499 203.5885,-181.3839"/><polygon fill="#000" stroke="#000" points="200.811 -179.253 197.304 -189.25 206.28 -183.622 200.811 -179.253"/></g><g id="node12" class="node"><title>9083351654448554583</title><ellipse cx="350.903" cy="-219.79" fill="none" stroke="#000" rx="38.993" ry="38.993"/><text x="350.903" y="-216.09" fill="#000" font-family="Times,serif" font-size="14" text-anchor="middle">format3</text></g><g id="edge17" class="edge"><title>7605293337862961951-&gt;9083351654448554583</title><path fill="none" stroke="#000" d="M284.8228,-137.0833C295.6,-150.5722 308.6054,-166.8499 320.2176,-181.3839"/><polygon fill="#000" stroke="#000" points="317.526 -183.622 326.502 -189.25 322.995 -179.253 317.526 -183.622"/></g><g id="node4" class="node"><title>8144402713526405249</title><polygon fill="none" stroke="#000" points="249.903 -36 195.903 -36 195.903 0 249.903 0 249.903 -36"/><text x="222.903" y="-14.3" fill="#000" font-family="Times,serif" font-size="14" text-anchor="middle">words</text></g><g id="edge2" class="edge"><title>8144402713526405249-&gt;7605293337862961951</title><path fill="none" stroke="#000" d="M230.7953,-36.2931C234.4421,-44.7459 238.9404,-55.1725 243.3719,-65.4441"/><polygon fill="#000" stroke="#000" points="240.221 -66.977 247.397 -74.772 246.649 -64.204 240.221 -66.977"/></g><g id="node5" class="node"><title>3716871435232496467</title><ellipse cx="172.903" cy="-108.397" fill="none" stroke="#000" rx="34.394" ry="34.394"/><text x="172.903" y="-104.697" fill="#000" font-family="Times,serif" font-size="14" text-anchor="middle">count1</text></g><g id="edge3" class="edge"><title>8144402713526405249-&gt;3716871435232496467</title><path fill="none" stroke="#000" d="M212.7848,-36.2931C207.561,-45.7374 200.9743,-57.6457 194.6671,-69.0488"/><polygon fill="#000" stroke="#000" points="191.478 -67.584 189.7 -78.029 197.603 -70.972 191.478 -67.584"/></g><g id="node7" class="node"><title>6949368097385664293</title><ellipse cx="48.903" cy="-108.397" fill="none" stroke="#000" rx="34.394" ry="34.394"/><text x="48.903" y="-104.697" fill="#000" font-family="Times,serif" font-size="14" text-anchor="middle">count2</text></g><g id="edge5" class="edge"><title>8144402713526405249-&gt;6949368097385664293</title><path fill="none" stroke="#000" d="M195.7156,-32.1245C166.9718,-47.0575 121.3452,-70.7615 88.5845,-87.7814"/><polygon fill="#000" stroke="#000" points="86.971 -84.676 79.71 -92.392 90.198 -90.887 86.971 -84.676"/></g><g id="node9" class="node"><title>1850821178809859933</title><ellipse cx="350.903" cy="-108.397" fill="none" stroke="#000" rx="34.394" ry="34.394"/><text x="350.903" y="-104.697" fill="#000" font-family="Times,serif" font-size="14" text-anchor="middle">count3</text></g><g id="edge7" class="edge"><title>8144402713526405249-&gt;1850821178809859933</title><path fill="none" stroke="#000" d="M249.9313,-34.2293C266.6725,-44.5602 288.4282,-58.4951 306.9031,-72 310.1419,-74.3676 313.4563,-76.8962 316.7414,-79.4757"/><polygon fill="#000" stroke="#000" points="314.797 -82.403 324.787 -85.93 319.177 -76.942 314.797 -82.403"/></g><g id="edge9" class="edge"><title>3716871435232496467-&gt;-2194791630953700651</title><path fill="none" stroke="#000" d="M172.9031,-143.0317C172.9031,-151.6627 172.9031,-161.085 172.9031,-170.2797"/><polygon fill="#000" stroke="#000" points="169.403 -170.51 172.903 -180.51 176.403 -170.51 169.403 -170.51"/></g><g id="node6" class="node"><title>-1995415989998690348</title><polygon fill="none" stroke="#000" points="155.903 -36 101.903 -36 101.903 0 155.903 0 155.903 -36"/><text x="128.903" y="-14.3" fill="#000" font-family="Times,serif" font-size="14" text-anchor="middle">val1</text></g><g id="edge4" class="edge"><title>-1995415989998690348-&gt;3716871435232496467</title><path fill="none" stroke="#000" d="M137.8071,-36.2931C142.28,-45.4826 147.8885,-57.0051 153.3011,-68.1251"/><polygon fill="#000" stroke="#000" points="150.249 -69.851 157.772 -77.311 156.543 -66.788 150.249 -69.851"/></g><g id="edge10" class="edge"><title>-1995415989998690348-&gt;-2194791630953700651</title><path fill="none" stroke="#000" d="M126.2226,-36.0262C123.1442,-60.9675 119.7265,-107.1822 129.9031,-144.7935 133.1186,-156.6779 138.6886,-168.6465 144.7739,-179.425"/><polygon fill="#000" stroke="#000" points="141.852 -181.359 149.966 -188.171 147.871 -177.786 141.852 -181.359"/></g><g id="edge12" class="edge"><title>6949368097385664293-&gt;90492689105354559</title><path fill="none" stroke="#000" d="M48.9031,-143.0317C48.9031,-151.6627 48.9031,-161.085 48.9031,-170.2797"/><polygon fill="#000" stroke="#000" points="45.403 -170.51 48.903 -180.51 52.403 -170.51 45.403 -170.51"/></g><g id="node8" class="node"><title>-7224875298001185714</title><polygon fill="none" stroke="#000" points="57.903 -36 3.903 -36 3.903 0 57.903 0 57.903 -36"/><text x="30.903" y="-14.3" fill="#000" font-family="Times,serif" font-size="14" text-anchor="middle">val2</text></g><g id="edge13" class="edge"><title>-7224875298001185714-&gt;90492689105354559</title><path fill="none" stroke="#000" d="M20.0151,-36.2867C14.6101,-46.4291 8.6585,-59.4895 5.9031,-72 -1.0559,-103.5954 -2.4236,-113.5307 5.9031,-144.7935 9.0717,-156.6905 14.6249,-168.6636 20.709,-179.4424"/><polygon fill="#000" stroke="#000" points="17.788 -181.378 25.904 -188.188 23.806 -177.803 17.788 -181.378"/></g><g id="edge6" class="edge"><title>-7224875298001185714-&gt;6949368097385664293</title><path fill="none" stroke="#000" d="M34.5456,-36.2931C36.179,-44.496 38.1825,-54.5577 40.1688,-64.5327"/><polygon fill="#000" stroke="#000" points="36.749 -65.283 42.135 -74.407 43.614 -63.916 36.749 -65.283"/></g><g id="edge16" class="edge"><title>1850821178809859933-&gt;9083351654448554583</title><path fill="none" stroke="#000" d="M350.9031,-143.0317C350.9031,-151.6627 350.9031,-161.085 350.9031,-170.2797"/><polygon fill="#000" stroke="#000" points="347.403 -170.51 350.903 -180.51 354.403 -170.51 347.403 -170.51"/></g><g id="node10" class="node"><title>5733310191445485457</title><polygon fill="none" stroke="#000" points="408.903 -36 354.903 -36 354.903 0 408.903 0 408.903 -36"/><text x="381.903" y="-14.3" fill="#000" font-family="Times,serif" font-size="14" text-anchor="middle">val3</text></g><g id="edge8" class="edge"><title>5733310191445485457-&gt;1850821178809859933</title><path fill="none" stroke="#000" d="M375.6297,-36.2931C372.6768,-44.9039 369.0215,-55.563 365.4355,-66.0199"/><polygon fill="#000" stroke="#000" points="362.117 -64.907 362.184 -75.502 368.738 -67.178 362.117 -64.907"/></g><g id="edge15" class="edge"><title>5733310191445485457-&gt;9083351654448554583</title><path fill="none" stroke="#000" d="M387.6206,-36.3907C394.491,-61.3609 403.9188,-107.1889 393.9031,-144.7935 390.7344,-156.6905 385.1812,-168.6636 379.0971,-179.4424"/><polygon fill="#000" stroke="#000" points="376 -177.803 373.902 -188.188 382.019 -181.378 376 -177.803"/></g><g id="node13" class="node"><title>9194842205208052348</title><ellipse cx="172.903" cy="-326.634" fill="none" stroke="#000" rx="31.695" ry="31.695"/><text x="172.903" y="-322.934" fill="#000" font-family="Times,serif" font-size="14" text-anchor="middle">print1</text></g><g id="edge18" class="edge"><title>-2194791630953700651-&gt;9194842205208052348</title><path fill="none" stroke="#000" d="M172.9031,-258.968C172.9031,-267.1757 172.9031,-275.8674 172.9031,-284.1877"/><polygon fill="#000" stroke="#000" points="169.403 -284.464 172.903 -294.464 176.403 -284.464 169.403 -284.464"/></g><g id="node14" class="node"><title>9007913784480207671</title><ellipse cx="350.903" cy="-326.634" fill="none" stroke="#000" rx="31.695" ry="31.695"/><text x="350.903" y="-322.934" fill="#000" font-family="Times,serif" font-size="14" text-anchor="middle">print3</text></g><g id="edge19" class="edge"><title>9083351654448554583-&gt;9007913784480207671</title><path fill="none" stroke="#000" d="M350.9031,-258.968C350.9031,-267.1757 350.9031,-275.8674 350.9031,-284.1877"/><polygon fill="#000" stroke="#000" points="347.403 -284.464 350.903 -294.464 354.403 -284.464 347.403 -284.464"/></g></g></svg>