<svg xmlns="http://www.w3.org/2000/svg" xmlns:xlink="http://www.w3.org/1999/xlink" width="340" height="392" viewBox="0 0 254.89 294.48"><g id="graph0" class="graph" transform="scale(1 1) rotate(0) translate(4 290.481)"><title>%3</title><polygon fill="#fff" stroke="transparent" points="-4 4 -4 -290.481 250.894 -290.481 250.894 4 -4 4"/><g id="node1" class="node"><title>9194842205208052348</title><ellipse cx="75.447" cy="-254.634" fill="none" stroke="#000" rx="31.695" ry="31.695"/><text x="75.447" y="-250.934" fill="#000" font-family="Times,serif" font-size="14" text-anchor="middle">print1</text></g><g id="node2" class="node"><title>-2194791630953700651</title><ellipse cx="75.447" cy="-147.79" fill="none" stroke="#000" rx="38.993" ry="38.993"/><text x="75.447" y="-144.09" fill="#000" font-family="Times,serif" font-size="14" text-anchor="middle">format1</text></g><g id="edge1" class="edge"><title>-2194791630953700651-&gt;9194842205208052348</title><path fill="none" stroke="#000" d="M75.4469,-186.968C75.4469,-195.1757 75.4469,-203.8674 75.4469,-212.1877"/><polygon fill="#000" stroke="#000" points="71.947 -212.464 75.447 -222.464 78.947 -212.464 71.947 -212.464"/></g><g id="node3" class="node"><title>5022637276554243765</title><ellipse cx="191.447" cy="-254.634" fill="none" stroke="#000" rx="31.695" ry="31.695"/><text x="191.447" y="-250.934" fill="#000" font-family="Times,serif" font-size="14" text-anchor="middle">print2</text></g><g id="node4" class="node"><title>90492689105354559</title><ellipse cx="191.447" cy="-147.79" fill="none" stroke="#000" rx="38.993" ry="38.993"/><text x="191.447" y="-144.09" fill="#000" font-family="Times,serif" font-size="14" text-anchor="middle">format2</text></g><g id="edge2" class="edge"><title>90492689105354559-&gt;5022637276554243765</title><path fill="none" stroke="#000" d="M191.4469,-186.968C191.4469,-195.1757 191.4469,-203.8674 191.4469,-212.1877"/><polygon fill="#000" stroke="#000" points="187.947 -212.464 191.447 -222.464 194.947 -212.464 187.947 -212.464"/></g><g id="node5" class="node"><title>3716871435232496467</title><ellipse cx="34.447" cy="-36.397" fill="none" stroke="#000" rx="34.394" ry="34.394"/><text x="34.447" y="-32.697" fill="#000" font-family="Times,serif" font-size="14" text-anchor="middle">count1</text></g><g id="edge3" class="edge"><title>3716871435232496467-&gt;-2194791630953700651</title><path fill="none" stroke="#000" d="M46.4161,-68.9158C50.182,-79.1474 54.4153,-90.6491 58.4606,-101.6397"/><polygon fill="#000" stroke="#000" points="55.212 -102.946 61.951 -111.122 61.781 -100.528 55.212 -102.946"/></g><g id="node6" class="node"><title>7605293337862961951</title><ellipse cx="123.447" cy="-36.397" fill="none" stroke="#000" rx="36.294" ry="36.294"/><text x="123.447" y="-32.697" fill="#000" font-family="Times,serif" font-size="14" text-anchor="middle">nwords</text></g><g id="edge4" class="edge"><title>7605293337862961951-&gt;-2194791630953700651</title><path fill="none" stroke="#000" d="M108.9151,-70.1207C104.5188,-80.3233 99.6176,-91.6974 94.9516,-102.5258"/><polygon fill="#000" stroke="#000" points="91.673 -101.289 90.93 -111.858 98.102 -104.06 91.673 -101.289"/></g><g id="edge6" class="edge"><title>7605293337862961951-&gt;90492689105354559</title><path fill="none" stroke="#000" d="M142.5697,-67.7225C149.783,-79.5388 158.1091,-93.1781 165.822,-105.8129"/><polygon fill="#000" stroke="#000" points="162.845 -107.653 171.042 -114.365 168.82 -104.006 162.845 -107.653"/></g><g id="node7" class="node"><title>6949368097385664293</title><ellipse cx="212.447" cy="-36.397" fill="none" stroke="#000" rx="34.394" ry="34.394"/><text x="212.447" y="-32.697" fill="#000" font-family="Times,serif" font-size="14" text-anchor="middle">count2</text></g><g id="edge5" class="edge"><title>6949368097385664293-&gt;90492689105354559</title><path fill="none" stroke="#000" d="M206.0321,-70.4237C204.3133,-79.5411 202.4215,-89.5764 200.586,-99.3123"/><polygon fill="#000" stroke="#000" points="197.117 -98.823 198.703 -109.299 203.995 -100.12 197.117 -98.823"/></g></g></svg>