<svg xmlns="http://www.w3.org/2000/svg" xmlns:xlink="http://www.w3.org/1999/xlink" width="182pt" height="388" viewBox="0 0 181.99 290.58"><g id="graph0" class="graph" transform="scale(1 1) rotate(0) translate(4 286.5813)"><title>%3</title><polygon fill="#fff" stroke="transparent" points="-4 4 -4 -286.581 177.993 -286.581 177.993 4 -4 4"/><g id="node1" class="node"><title>9194842205208052348</title><ellipse cx="38.996" cy="-250.734" fill="none" stroke="#000" rx="31.695" ry="31.695"/><text x="38.996" y="-247.034" fill="#000" font-family="Times,serif" font-size="14" text-anchor="middle">print1</text></g><g id="node2" class="node"><title>-2194791630953700651</title><ellipse cx="38.996" cy="-143.89" fill="none" stroke="#000" rx="38.993" ry="38.993"/><text x="38.996" y="-140.19" fill="#000" font-family="Times,serif" font-size="14" text-anchor="middle">format1</text></g><g id="edge1" class="edge"><title>-2194791630953700651-&gt;9194842205208052348</title><path fill="none" stroke="#000" d="M38.9965,-183.0684C38.9965,-191.2761 38.9965,-199.9677 38.9965,-208.2881"/><polygon fill="#000" stroke="#000" points="35.497 -208.564 38.996 -218.564 42.497 -208.564 35.497 -208.564"/></g><g id="node3" class="node"><title>5022637276554243765</title><ellipse cx="134.996" cy="-250.734" fill="none" stroke="#000" rx="31.695" ry="31.695"/><text x="134.996" y="-247.034" fill="#000" font-family="Times,serif" font-size="14" text-anchor="middle">print2</text></g><g id="node4" class="node"><title>90492689105354559</title><ellipse cx="134.996" cy="-143.89" fill="none" stroke="#000" rx="38.993" ry="38.993"/><text x="134.996" y="-140.19" fill="#000" font-family="Times,serif" font-size="14" text-anchor="middle">format2</text></g><g id="edge2" class="edge"><title>90492689105354559-&gt;5022637276554243765</title><path fill="none" stroke="#000" d="M134.9965,-183.0684C134.9965,-191.2761 134.9965,-199.9677 134.9965,-208.2881"/><polygon fill="#000" stroke="#000" points="131.497 -208.564 134.996 -218.564 138.497 -208.564 131.497 -208.564"/></g><g id="node5" class="node"><title>3716871435232496467</title><ellipse cx="38.996" cy="-34.447" fill="none" stroke="#000" rx="34.394" ry="34.394"/><text x="38.996" y="-30.747" fill="#000" font-family="Times,serif" font-size="14" text-anchor="middle">count1</text></g><g id="edge3" class="edge"><title>3716871435232496467-&gt;-2194791630953700651</title><path fill="none" stroke="#000" d="M38.9965,-69.0755C38.9965,-77.0895 38.9965,-85.7711 38.9965,-94.2859"/><polygon fill="#000" stroke="#000" points="35.497 -94.533 38.996 -104.533 42.497 -94.534 35.497 -94.533"/></g><g id="node6" class="node"><title>6949368097385664293</title><ellipse cx="134.996" cy="-34.447" fill="none" stroke="#000" rx="34.394" ry="34.394"/><text x="134.996" y="-30.747" fill="#000" font-family="Times,serif" font-size="14" text-anchor="middle">count2</text></g><g id="edge4" class="edge"><title>6949368097385664293-&gt;90492689105354559</title><path fill="none" stroke="#000" d="M134.9965,-69.0755C134.9965,-77.0895 134.9965,-85.7711 134.9965,-94.2859"/><polygon fill="#000" stroke="#000" points="131.497 -94.533 134.996 -104.533 138.497 -94.534 131.497 -94.533"/></g></g></svg>