<svg xmlns="http://www.w3.org/2000/svg" xmlns:xlink="http://www.w3.org/1999/xlink" width="302pt" height="488" viewBox="0 0 302 366.48"><g id="graph0" class="graph" transform="scale(1 1) rotate(0) translate(4 362.481)"><title>%3</title><polygon fill="#fff" stroke="transparent" points="-4 4 -4 -362.481 298 -362.481 298 4 -4 4"/><g id="node1" class="node"><title>9194842205208052348</title><ellipse cx="58" cy="-326.634" fill="none" stroke="#000" rx="31.695" ry="31.695"/><text x="58" y="-322.934" fill="#000" font-family="Times,serif" font-size="14" text-anchor="middle">print1</text></g><g id="node2" class="node"><title>-2194791630953700651</title><ellipse cx="58" cy="-219.79" fill="none" stroke="#000" rx="38.993" ry="38.993"/><text x="58" y="-216.09" fill="#000" font-family="Times,serif" font-size="14" text-anchor="middle">format1</text></g><g id="edge1" class="edge"><title>-2194791630953700651-&gt;9194842205208052348</title><path fill="none" stroke="#000" d="M58,-258.968C58,-267.1757 58,-275.8674 58,-284.1877"/><polygon fill="#000" stroke="#000" points="54.5 -284.464 58 -294.464 61.5 -284.464 54.5 -284.464"/></g><g id="node3" class="node"><title>5022637276554243765</title><ellipse cx="236" cy="-326.634" fill="none" stroke="#000" rx="31.695" ry="31.695"/><text x="236" y="-322.934" fill="#000" font-family="Times,serif" font-size="14" text-anchor="middle">print2</text></g><g id="node4" class="node"><title>90492689105354559</title><ellipse cx="236" cy="-219.79" fill="none" stroke="#000" rx="38.993" ry="38.993"/><text x="236" y="-216.09" fill="#000" font-family="Times,serif" font-size="14" text-anchor="middle">format2</text></g><g id="edge2" class="edge"><title>90492689105354559-&gt;5022637276554243765</title><path fill="none" stroke="#000" d="M236,-258.968C236,-267.1757 236,-275.8674 236,-284.1877"/><polygon fill="#000" stroke="#000" points="232.5 -284.464 236 -294.464 239.5 -284.464 232.5 -284.464"/></g><g id="node5" class="node"><title>3716871435232496467</title><ellipse cx="58" cy="-108.397" fill="none" stroke="#000" rx="34.394" ry="34.394"/><text x="58" y="-104.697" fill="#000" font-family="Times,serif" font-size="14" text-anchor="middle">count1</text></g><g id="edge3" class="edge"><title>3716871435232496467-&gt;-2194791630953700651</title><path fill="none" stroke="#000" d="M58,-143.0317C58,-151.6627 58,-161.085 58,-170.2797"/><polygon fill="#000" stroke="#000" points="54.5 -170.51 58 -180.51 61.5 -170.51 54.5 -170.51"/></g><g id="node6" class="node"><title>-1995415989998690348</title><polygon fill="none" stroke="#000" points="54 -36 0 -36 0 0 54 0 54 -36"/><text x="27" y="-14.3" fill="#000" font-family="Times,serif" font-size="14" text-anchor="middle">val1</text></g><g id="edge4" class="edge"><title>-1995415989998690348-&gt;-2194791630953700651</title><path fill="none" stroke="#000" d="M21.2825,-36.3907C14.412,-61.3609 4.9843,-107.1889 15,-144.7935 18.1687,-156.6905 23.7218,-168.6636 29.8059,-179.4424"/><polygon fill="#000" stroke="#000" points="26.885 -181.378 35.001 -188.188 32.903 -177.803 26.885 -181.378"/></g><g id="edge10" class="edge"><title>-1995415989998690348-&gt;3716871435232496467</title><path fill="none" stroke="#000" d="M33.2733,-36.2931C36.2262,-44.9039 39.8816,-55.563 43.4676,-66.0199"/><polygon fill="#000" stroke="#000" points="40.164 -67.178 46.719 -75.502 46.786 -64.907 40.164 -67.178"/></g><g id="node7" class="node"><title>7605293337862961951</title><ellipse cx="147" cy="-108.397" fill="none" stroke="#000" rx="36.294" ry="36.294"/><text x="147" y="-104.697" fill="#000" font-family="Times,serif" font-size="14" text-anchor="middle">nwords</text></g><g id="edge5" class="edge"><title>7605293337862961951-&gt;-2194791630953700651</title><path fill="none" stroke="#000" d="M124.0803,-137.0833C113.3031,-150.5722 100.2977,-166.8499 88.6855,-181.3839"/><polygon fill="#000" stroke="#000" points="85.908 -179.253 82.401 -189.25 91.377 -183.622 85.908 -179.253"/></g><g id="edge8" class="edge"><title>7605293337862961951-&gt;90492689105354559</title><path fill="none" stroke="#000" d="M169.9197,-137.0833C180.6969,-150.5722 193.7023,-166.8499 205.3145,-181.3839"/><polygon fill="#000" stroke="#000" points="202.623 -183.622 211.599 -189.25 208.092 -179.253 202.623 -183.622"/></g><g id="node8" class="node"><title>6949368097385664293</title><ellipse cx="236" cy="-108.397" fill="none" stroke="#000" rx="34.394" ry="34.394"/><text x="236" y="-104.697" fill="#000" font-family="Times,serif" font-size="14" text-anchor="middle">count2</text></g><g id="edge6" class="edge"><title>6949368097385664293-&gt;90492689105354559</title><path fill="none" stroke="#000" d="M236,-143.0317C236,-151.6627 236,-161.085 236,-170.2797"/><polygon fill="#000" stroke="#000" points="232.5 -170.51 236 -180.51 239.5 -170.51 232.5 -170.51"/></g><g id="node9" class="node"><title>-7224875298001185714</title><polygon fill="none" stroke="#000" points="294 -36 240 -36 240 0 294 0 294 -36"/><text x="267" y="-14.3" fill="#000" font-family="Times,serif" font-size="14" text-anchor="middle">val2</text></g><g id="edge7" class="edge"><title>-7224875298001185714-&gt;90492689105354559</title><path fill="none" stroke="#000" d="M272.7175,-36.3907C279.588,-61.3609 289.0157,-107.1889 279,-144.7935 275.8313,-156.6905 270.2782,-168.6636 264.1941,-179.4424"/><polygon fill="#000" stroke="#000" points="261.097 -177.803 258.999 -188.188 267.115 -181.378 261.097 -177.803"/></g><g id="edge13" class="edge"><title>-7224875298001185714-&gt;6949368097385664293</title><path fill="none" stroke="#000" d="M260.7267,-36.2931C257.7738,-44.9039 254.1184,-55.563 250.5324,-66.0199"/><polygon fill="#000" stroke="#000" points="247.214 -64.907 247.281 -75.502 253.835 -67.178 247.214 -64.907"/></g><g id="node10" class="node"><title>8144402713526405249</title><polygon fill="none" stroke="#000" points="174 -36 120 -36 120 0 174 0 174 -36"/><text x="147" y="-14.3" fill="#000" font-family="Times,serif" font-size="14" text-anchor="middle">words</text></g><g id="edge9" class="edge"><title>8144402713526405249-&gt;3716871435232496467</title><path fill="none" stroke="#000" d="M128.9895,-36.2931C117.6754,-47.7849 102.7692,-62.9249 89.5381,-76.3637"/><polygon fill="#000" stroke="#000" points="86.915 -74.039 82.393 -83.621 91.903 -78.95 86.915 -74.039"/></g><g id="edge11" class="edge"><title>8144402713526405249-&gt;7605293337862961951</title><path fill="none" stroke="#000" d="M147,-36.2931C147,-43.7149 147,-52.6583 147,-61.6825"/><polygon fill="#000" stroke="#000" points="143.5 -61.828 147 -71.829 150.5 -61.828 143.5 -61.828"/></g><g id="edge12" class="edge"><title>8144402713526405249-&gt;6949368097385664293</title><path fill="none" stroke="#000" d="M165.0105,-36.2931C176.3246,-47.7849 191.2308,-62.9249 204.4619,-76.3637"/><polygon fill="#000" stroke="#000" points="202.097 -78.95 211.607 -83.621 207.085 -74.039 202.097 -78.95"/></g></g></svg>