<svg xmlns="http://www.w3.org/2000/svg" xmlns:svg="http://www.w3.org/2000/svg" id="svg5450" width="241.188" height="103.75" version="1.1"><defs id="defs5452"><marker id="Arrow1Mend" orient="auto" refX="0" refY="0" style="overflow:visible"><path id="path4313" d="M 0,0 5,-5 -12.5,0 5,5 0,0 z" style="fill-rule:evenodd;stroke:#000;stroke-width:1pt" transform="matrix(-0.4,0,0,-0.4,-4,0)"/></marker><marker id="marker5440" orient="auto" refX="0" refY="0" style="overflow:visible"><path id="path5442" d="M 0,0 5,-5 -12.5,0 5,5 0,0 z" style="fill-rule:evenodd;stroke:#000;stroke-width:1pt" transform="matrix(-0.4,0,0,-0.4,-4,0)"/></marker></defs><metadata id="metadata5455"/><g id="layer1" transform="translate(-254.40625,-480.5)"><rect style="opacity:.6;fill:navy;fill-opacity:.50196078;stroke:#000;stroke-width:2;stroke-linecap:round;stroke-miterlimit:4;stroke-opacity:1;stroke-dasharray:none;stroke-dashoffset:0" id="rect2987-2-2-9-9-7-0" width="70" height="110" x="-565.935" y="384.596" transform="matrix(0,-1,1,0,0,0)"/><rect style="opacity:.6;fill:#6ce0ff;fill-opacity:.50196078;stroke:#000;stroke-width:2;stroke-linecap:round;stroke-miterlimit:4;stroke-opacity:1;stroke-dasharray:none;stroke-dashoffset:0" id="rect3042-7-3" width="5" height="70" x="377.59" y="495.816"/><rect style="opacity:.6;fill:navy;fill-opacity:.50196078;stroke:#000;stroke-width:2;stroke-linecap:round;stroke-miterlimit:4;stroke-opacity:1;stroke-dasharray:none;stroke-dashoffset:0" id="rect2987-2-2-9-9-7-5-7" width="70" height="110" x="-565.835" y="255.404" transform="matrix(0,-1,1,0,0,0)"/><rect style="opacity:.6;fill:#6ce0ff;fill-opacity:.50196078;stroke:#000;stroke-width:2;stroke-linecap:round;stroke-miterlimit:4;stroke-opacity:1;stroke-dasharray:none;stroke-dashoffset:0" id="rect3042-78-2" width="5" height="70" x="367.419" y="495.666"/><path style="fill:none;stroke:#000;stroke-width:1px;stroke-linecap:butt;stroke-linejoin:miter;stroke-opacity:1;marker-end:url(#Arrow1Mend)" id="path4298" d="m 389.44034,495.98718 c 0,-10 -5,-15 -10,-15 -5,0 -10,5 -10,15"/><path style="fill:none;stroke:#000;stroke-width:1.01590037px;stroke-linecap:butt;stroke-linejoin:miter;stroke-opacity:1;marker-end:url(#Arrow1Mend)" id="path4298-1" d="m 361.44829,567.79197 c 0,10.62484 4.8568,15.93726 9.7136,15.93726 4.8568,0 9.71359,-5.31242 9.71359,-15.93726"/></g></svg>